<?xml version="1.0" encoding="UTF-8"?>
<svg id="Layer_2" xmlns="http://www.w3.org/2000/svg" xmlns:xlink="http://www.w3.org/1999/xlink" viewBox="0 0 32.68 46.39">
  <defs>
    <style>
      .cls-1 {
        fill: #00c2ff;
      }

      .cls-2 {
        fill: url(#linear-gradient-5);
      }

      .cls-3 {
        fill: url(#linear-gradient-6);
      }

      .cls-4 {
        fill: url(#linear-gradient-4);
      }

      .cls-5 {
        fill: url(#linear-gradient-3);
      }

      .cls-6 {
        fill: url(#linear-gradient-2);
      }

      .cls-7 {
        fill: url(#linear-gradient);
      }
    </style>
    <linearGradient id="linear-gradient" x1="15.61" y1="31.05" x2="15.61" y2="31.05" gradientUnits="userSpaceOnUse">
      <stop offset=".04" stop-color="#00c2ff"/>
      <stop offset=".17" stop-color="#00befb"/>
      <stop offset=".3" stop-color="#00b5ef"/>
      <stop offset=".43" stop-color="#02a6dc"/>
      <stop offset=".52" stop-color="#0399cb"/>
      <stop offset=".58" stop-color="#0390bf"/>
      <stop offset=".68" stop-color="#0478a2"/>
      <stop offset=".82" stop-color="#075172"/>
      <stop offset=".98" stop-color="#0a1c30"/>
      <stop offset="1" stop-color="#0b1628"/>
    </linearGradient>
    <linearGradient id="linear-gradient-2" x1="0" y1="26.7" x2="23.76" y2="26.7" gradientUnits="userSpaceOnUse">
      <stop offset="0" stop-color="#0bbffd"/>
      <stop offset=".05" stop-color="#09abf3"/>
      <stop offset=".13" stop-color="#0692e6"/>
      <stop offset=".21" stop-color="#0580de"/>
      <stop offset=".3" stop-color="#0475d8"/>
      <stop offset=".39" stop-color="#0472d7"/>
      <stop offset=".69" stop-color="#089eec"/>
      <stop offset=".86" stop-color="#0ab1f6"/>
      <stop offset=".94" stop-color="#09aff5"/>
      <stop offset=".97" stop-color="#08a8f1"/>
      <stop offset=".99" stop-color="#079cec"/>
      <stop offset="1" stop-color="#0798ea"/>
    </linearGradient>
    <linearGradient id="linear-gradient-3" x1="7.37" y1="27.54" x2="32.68" y2="27.54" gradientUnits="userSpaceOnUse">
      <stop offset="0" stop-color="#0472d7"/>
      <stop offset=".52" stop-color="#0472d7"/>
      <stop offset="1" stop-color="#0bbffd"/>
    </linearGradient>
    <linearGradient id="linear-gradient-4" x1="30.81" y1="42.73" x2="30.85" y2="42.73" gradientUnits="userSpaceOnUse">
      <stop offset="0" stop-color="#0bdcd4"/>
      <stop offset=".25" stop-color="#10d7d0"/>
      <stop offset=".56" stop-color="#1ec8c4"/>
      <stop offset=".89" stop-color="#37b1b2"/>
      <stop offset="1" stop-color="#41a8ab"/>
    </linearGradient>
    <linearGradient id="linear-gradient-5" x1="10.9" y1="6.2" x2="12.98" y2="6.2" gradientUnits="userSpaceOnUse">
      <stop offset="0" stop-color="#0bbffd"/>
      <stop offset=".51" stop-color="#0fbafb"/>
      <stop offset="1" stop-color="#0472d7"/>
    </linearGradient>
    <linearGradient id="linear-gradient-6" x1="13.83" y1="4.4" x2="15.91" y2="4.4" xlink:href="#linear-gradient-4"/>
  </defs>
  <line class="cls-7" x1="15.61" y1="31.05" x2="15.61" y2="31.05"/>
  <path class="cls-6" d="M19.96,20.82v2.5h3.8v3.74h-3.62l-.07,5.4c0,1.15-1.7,2.02-3.79,2.02v-2.39L3.76,15.13s.02,12.45.17,16.07c0,3.75,1.56,6.79,3.5,6.79v-.62c.02-.17,0-14.46,0-14.46l1.35,2v19.69c-4.85,0-8.78-5.96-8.78-13.33V8.8h3.76l12.53,16.35v-8.31h7.48v3.98h-3.8Z"/>
  <path class="cls-5" d="M23.57,8.8H7.37l2.68,4.09h13.52c3.02,0,5.46,1.83,5.46,4.09v14.3c0,2.26-2.44,4.09-5.46,4.09h-10.93v4.09h-.01v4.05c-.42.25-.7.74-.7,1.3,0,.82.59,1.48,1.32,1.48s1.31-.66,1.31-1.48c0-.56-.28-1.06-.7-1.3v-4.05h9.71c5.03,0,9.11-3.66,9.11-8.17v-14.3c0-4.52-4.07-8.17-9.11-8.17ZM13.95,44.8c0,.44-.32.79-.7.79s-.7-.35-.7-.79.32-.79.7-.79.7.35.7.79Z"/>
  <path class="cls-4" d="M10.79,44.26v-3.06c.33-.19.55-.57.55-1,0-.62-.46-1.13-1.04-1.13s-1.04.51-1.04,1.13c0,.43.22.81.55,1v3.06c-.33.19-.55.57-.55,1,0,.62.47,1.13,1.04,1.13s1.04-.51,1.04-1.13c0-.44-.22-.81-.55-1ZM9.75,40.19c0-.33.25-.6.56-.6s.56.27.56.6-.25.6-.56.6-.56-.27-.56-.6ZM10.3,45.9c-.31,0-.56-.27-.56-.6s.25-.6.56-.6.56.27.56.6-.25.6-.56.6Z"/>
  <path class="cls-2" d="M12.98,4.74c0-.62-.46-1.13-1.04-1.13s-1.04.51-1.04,1.13c0,.43.22.81.55,1v3.06h.97v-3.06c.33-.19.55-.57.55-1ZM11.94,5.33c-.31,0-.56-.27-.56-.6s.25-.6.56-.6.56.27.56.6-.25.6-.56.6Z"/>
  <path class="cls-3" d="M14.87,0c-.57,0-1.04.51-1.04,1.13,0,.43.23.81.56,1v3.06l.03,3.61h.94V2.13c.33-.19.55-.57.55-1,0-.62-.47-1.13-1.04-1.13ZM14.87,1.73c-.31,0-.56-.27-.56-.6s.25-.6.56-.6.56.27.56.6-.25.6-.56.6Z"/>
  <path class="cls-1" d="M19.05,4.74c0-.62-.46-1.13-1.04-1.13s-1.04.51-1.04,1.13c0,.43.22.81.55,1v3.06h.97v-3.06c.33-.19.55-.57.55-1ZM18.01,5.33c-.31,0-.56-.27-.56-.6s.25-.6.56-.6.56.27.56.6-.25.6-.56.6Z"/>
</svg>