<?xml version="1.0" encoding="UTF-8"?>
<svg id="Layer_2" xmlns="http://www.w3.org/2000/svg" xmlns:xlink="http://www.w3.org/1999/xlink" viewBox="0 0 48 48">
  <defs>
    <style>
      .cls-1 {
        fill: url(#linear-gradient-3);
      }

      .cls-2 {
        fill: url(#linear-gradient-2);
      }

      .cls-3 {
        fill: none;
        stroke: #231f20;
        stroke-miterlimit: 10;
      }

      .cls-4 {
        fill: url(#linear-gradient);
      }

      .cls-5 {
        fill: #0381cc;
      }

      .cls-6 {
        fill: #df427c;
      }
    </style>
    <linearGradient id="linear-gradient" x1="6.82" y1="27.52" x2="24.63" y2="27.52" gradientUnits="userSpaceOnUse">
      <stop offset="0" stop-color="#0154aa"/>
      <stop offset=".68" stop-color="#0158ad"/>
      <stop offset=".8" stop-color="#0163b5"/>
      <stop offset="1" stop-color="#0381cc"/>
    </linearGradient>
    <linearGradient id="linear-gradient-2" x1="24.63" y1="26.48" x2="32.8" y2="26.48" gradientUnits="userSpaceOnUse">
      <stop offset="0" stop-color="#0381cc"/>
      <stop offset=".2" stop-color="#0163b5"/>
      <stop offset=".32" stop-color="#0158ad"/>
    </linearGradient>
    <linearGradient id="linear-gradient-3" x1="14.88" y1="28.36" x2="42.54" y2="28.36" gradientUnits="userSpaceOnUse">
      <stop offset="0" stop-color="#df427c"/>
      <stop offset=".21" stop-color="#8e488c"/>
      <stop offset=".56" stop-color="#0154aa"/>
      <stop offset=".79" stop-color="#0155ab"/>
      <stop offset=".88" stop-color="#015cb0"/>
      <stop offset=".94" stop-color="#0168b9"/>
      <stop offset=".98" stop-color="#0279c6"/>
      <stop offset="1" stop-color="#0381cc"/>
    </linearGradient>
  </defs>
  <line class="cls-3" x1="23.88" y1="31.9" x2="23.88" y2="31.9"/>
  <path class="cls-4" d="M24.63,32.95L10.93,15.89s.02,12.51.19,16.15c0,3.77,1.71,6.83,3.82,6.83v-.63c.03-.17,0-14.53,0-14.53l1.48,2.01v19.79c-5.3,0-9.6-5.99-9.6-13.39V9.53h4.11l13.7,16.43"/>
  <path class="cls-2" d="M24.63,25.96v-8.35h8.17v4h-4.15v2.51h4.15v3.76h-3.96l-.07,5.42c0,1.15-1.86,2.03-4.15,2.03v-2.4"/>
  <path class="cls-1" d="M32.59,9.53H14.88l2.93,4.11h14.78c3.3,0,5.97,1.84,5.97,4.11v14.37c0,2.27-2.67,4.11-5.97,4.11h-11.95v4.11h-.01v4.07c-.46.25-.77.74-.77,1.31,0,.82.64,1.48,1.44,1.48s1.43-.66,1.43-1.48c0-.57-.31-1.06-.76-1.31v-4.07h10.62c5.5,0,9.95-3.67,9.95-8.21v-14.37c0-4.54-4.45-8.21-9.95-8.21ZM22.07,45.71c0,.44-.35.79-.77.79s-.77-.36-.77-.79.35-.79.77-.79.77.36.77.79Z"/>
  <path class="cls-6" d="M18.62,45.16v-3.07c.36-.19.61-.57.61-1.01,0-.63-.51-1.14-1.14-1.14s-1.14.51-1.14,1.14c0,.44.25.82.61,1.01v3.07c-.36.19-.61.57-.61,1.01,0,.63.51,1.14,1.14,1.14s1.14-.51,1.14-1.14c0-.44-.25-.82-.61-1.01ZM17.48,41.08c0-.34.27-.61.61-.61s.61.27.61.61-.27.61-.61.61-.61-.27-.61-.61ZM18.09,46.81c-.34,0-.61-.27-.61-.61s.27-.61.61-.61.61.27.61.61-.27.61-.61.61Z"/>
  <path class="cls-5" d="M21.01,5.45c0-.63-.51-1.14-1.14-1.14s-1.14.51-1.14,1.14c0,.44.25.82.61,1.01v3.07h1.06v-3.07c.36-.19.61-.57.61-1.01ZM19.87,6.05c-.34,0-.61-.27-.61-.61s.27-.61.61-.61.61.27.61.61-.27.61-.61.61Z"/>
  <path class="cls-6" d="M23.08.69c-.63,0-1.14.51-1.14,1.14,0,.44.25.82.61,1.01v3.07l.03,3.63h1.03V2.84c.36-.19.6-.57.6-1.01,0-.63-.51-1.14-1.14-1.14ZM23.08,2.43c-.34,0-.61-.27-.61-.61s.27-.61.61-.61.61.27.61.61-.27.61-.61.61Z"/>
  <path class="cls-5" d="M27.65,5.45c0-.63-.51-1.14-1.14-1.14s-1.14.51-1.14,1.14c0,.44.25.82.61,1.01v3.07h1.06v-3.07c.36-.19.61-.57.61-1.01ZM26.51,6.05c-.34,0-.61-.27-.61-.61s.27-.61.61-.61.61.27.61.61-.27.61-.61.61Z"/>
</svg>