<?xml version="1.0" encoding="UTF-8"?>
<svg id="Layer_2" xmlns="http://www.w3.org/2000/svg" xmlns:xlink="http://www.w3.org/1999/xlink" viewBox="0 0 500 500">
  <defs>
    <style>
      .cls-1 {
        fill: #00c2ff;
      }

      .cls-2 {
        fill: url(#linear-gradient-5);
      }

      .cls-3 {
        fill: url(#linear-gradient-6);
      }

      .cls-4 {
        fill: url(#linear-gradient-4);
      }

      .cls-5 {
        fill: url(#linear-gradient-3);
      }

      .cls-6 {
        fill: url(#linear-gradient-2);
      }

      .cls-7 {
        fill: url(#linear-gradient);
      }
    </style>
    <linearGradient id="linear-gradient" x1="242.56" y1="331.62" x2="242.56" y2="331.62" gradientUnits="userSpaceOnUse">
      <stop offset=".04" stop-color="#00c2ff"/>
      <stop offset=".17" stop-color="#00befb"/>
      <stop offset=".3" stop-color="#00b5ef"/>
      <stop offset=".43" stop-color="#02a6dc"/>
      <stop offset=".52" stop-color="#0399cb"/>
      <stop offset=".58" stop-color="#0390bf"/>
      <stop offset=".68" stop-color="#0478a2"/>
      <stop offset=".82" stop-color="#075172"/>
      <stop offset=".98" stop-color="#0a1c30"/>
      <stop offset="1" stop-color="#0b1628"/>
    </linearGradient>
    <linearGradient id="linear-gradient-2" x1="84" y1="287.4" x2="325.44" y2="287.4" gradientUnits="userSpaceOnUse">
      <stop offset="0" stop-color="#0bbffd"/>
      <stop offset=".05" stop-color="#09abf3"/>
      <stop offset=".13" stop-color="#0692e6"/>
      <stop offset=".21" stop-color="#0580de"/>
      <stop offset=".3" stop-color="#0475d8"/>
      <stop offset=".39" stop-color="#0472d7"/>
      <stop offset=".69" stop-color="#089eec"/>
      <stop offset=".86" stop-color="#0ab1f6"/>
      <stop offset=".94" stop-color="#09aff5"/>
      <stop offset=".97" stop-color="#08a8f1"/>
      <stop offset=".99" stop-color="#079cec"/>
      <stop offset="1" stop-color="#0798ea"/>
    </linearGradient>
    <linearGradient id="linear-gradient-3" x1="158.9" y1="295.91" x2="416" y2="295.91" gradientUnits="userSpaceOnUse">
      <stop offset="0" stop-color="#0472d7"/>
      <stop offset=".52" stop-color="#0472d7"/>
      <stop offset="1" stop-color="#0bbffd"/>
    </linearGradient>
    <linearGradient id="linear-gradient-4" x1="396.98" y1="450.24" x2="397.44" y2="450.24" gradientUnits="userSpaceOnUse">
      <stop offset="0" stop-color="#0bdcd4"/>
      <stop offset=".25" stop-color="#10d7d0"/>
      <stop offset=".56" stop-color="#1ec8c4"/>
      <stop offset=".89" stop-color="#37b1b2"/>
      <stop offset="1" stop-color="#41a8ab"/>
    </linearGradient>
    <linearGradient id="linear-gradient-5" x1="194.69" y1="79.16" x2="215.82" y2="79.16" gradientUnits="userSpaceOnUse">
      <stop offset="0" stop-color="#0bbffd"/>
      <stop offset=".51" stop-color="#0fbafb"/>
      <stop offset="1" stop-color="#0472d7"/>
    </linearGradient>
    <linearGradient id="linear-gradient-6" x1="224.52" y1="60.84" x2="245.66" y2="60.84" xlink:href="#linear-gradient-4"/>
  </defs>
  <line class="cls-7" x1="242.56" y1="331.62" x2="242.56" y2="331.62"/>
  <path class="cls-6" d="M286.84,227.69v25.41h38.6v38.04h-36.77l-.68,54.83c0,11.64-17.28,20.52-38.53,20.52v-24.24l-127.29-172.41s.19,126.47,1.74,163.26c0,38.15,15.88,69.01,35.52,69.01v-6.32c.25-1.75,0-146.91,0-146.91l13.76,20.3v200.09c-49.3,0-89.19-60.54-89.19-135.39V105.53h38.17l127.29,166.1v-84.42h75.98v40.48h-38.6Z"/>
  <path class="cls-5" d="M323.49,105.53h-164.59l27.26,41.52h137.33c30.68,0,55.5,18.57,55.5,41.52v145.31c0,22.95-24.82,41.52-55.5,41.52h-111.04v41.52h-.11v41.15c-4.24,2.51-7.12,7.52-7.12,13.24,0,8.28,5.99,14.99,13.37,14.99s13.33-6.71,13.33-14.99c0-5.72-2.87-10.73-7.1-13.24v-41.15h98.67c51.13,0,92.51-37.14,92.51-83.04v-145.31c0-45.9-41.38-83.04-92.51-83.04ZM225.72,471.32c0,4.43-3.21,8.03-7.15,8.03s-7.15-3.6-7.15-8.03,3.21-8,7.15-8,7.15,3.6,7.15,8Z"/>
  <path class="cls-4" d="M193.62,465.78v-31.07c3.35-1.93,5.63-5.75,5.63-10.17,0-6.33-4.72-11.48-10.56-11.48s-10.57,5.15-10.57,11.48c0,4.41,2.28,8.25,5.63,10.17v31.07c-3.35,1.93-5.63,5.77-5.63,10.17,0,6.33,4.73,11.48,10.57,11.48s10.56-5.15,10.56-11.48c0-4.42-2.28-8.25-5.63-10.17ZM183.04,424.43c0-3.4,2.52-6.14,5.64-6.14s5.64,2.74,5.64,6.14-2.52,6.14-5.64,6.14-5.64-2.74-5.64-6.14ZM188.69,482.45c-3.12,0-5.64-2.74-5.64-6.14s2.52-6.14,5.64-6.14,5.64,2.74,5.64,6.14-2.52,6.14-5.64,6.14Z"/>
  <path class="cls-2" d="M215.82,64.28c0-6.33-4.72-11.48-10.56-11.48s-10.57,5.15-10.57,11.48c0,4.41,2.28,8.25,5.63,10.17v31.07h9.87v-31.07c3.35-1.93,5.63-5.75,5.63-10.17ZM205.26,70.32c-3.12,0-5.64-2.74-5.64-6.14s2.52-6.14,5.64-6.14,5.64,2.74,5.64,6.14-2.52,6.14-5.64,6.14Z"/>
  <path class="cls-3" d="M235.1,16.15c-5.83,0-10.58,5.17-10.58,11.49,0,4.41,2.29,8.26,5.64,10.17v31.07l.3,36.65h9.58V37.81c3.35-1.91,5.62-5.74,5.62-10.17,0-6.32-4.73-11.49-10.56-11.49ZM235.1,33.68c-3.14,0-5.64-2.74-5.64-6.14s2.5-6.14,5.64-6.14,5.64,2.72,5.64,6.14-2.52,6.14-5.64,6.14Z"/>
  <path class="cls-1" d="M277.56,64.28c0-6.33-4.72-11.48-10.56-11.48s-10.57,5.15-10.57,11.48c0,4.41,2.28,8.25,5.63,10.17v31.07h9.87v-31.07c3.35-1.93,5.63-5.75,5.63-10.17ZM267,70.32c-3.12,0-5.64-2.74-5.64-6.14s2.52-6.14,5.64-6.14,5.64,2.74,5.64,6.14-2.52,6.14-5.64,6.14Z"/>
</svg>